Coordinates
version=1
nRows=14
nColumns=42
inDegrees=yes

Units are S.I. units (second, meters, Newtons, ...)
If the header above contains a line with 'inDegrees', this indicates whether rotational values are in degrees (yes) or radians (no).

endheader
time	pelvis_tilt	pelvis_list	pelvis_rotation	pelvis_tx	pelvis_ty	pelvis_tz	hip_flexion_r	hip_adduction_r	hip_rotation_r	knee_angle_r	knee_adduction_r	knee_angle_r_beta	ankle_angle_r	subtalar_angle_r	mtp_angle_r	hip_flexion_l	hip_adduction_l	hip_rotation_l	knee_angle_l	knee_adduction_l	knee_angle_l_beta	ankle_angle_l	subtalar_angle_l	mtp_angle_l	lumbar_extension	lumbar_bending	lumbar_rotation	arm_flex_r	arm_add_r	arm_rot_r	elbow_flex_r	pro_sup_r	wrist_flex_r	wrist_dev_r	arm_flex_l	arm_add_l	arm_rot_l	elbow_flex_l	pro_sup_l	wrist_flex_l	wrist_dev_l
      1.71000000	     20.72353350	      1.78035306	     -3.61000559	      0.24877020	      0.98912717	      0.17794475	    -20.90524864	     -2.10478017	     -2.72457434	     60.38553467	     -3.69300489	      1.05392640	     -2.35822324	    -11.39587907	     -7.50937289	      1.00649607	      3.68230698	    -19.60254492	     30.54265655	     -7.85431505	      0.53306992	      9.03475744	     11.96134347	     -7.50937289	    -43.76061373	     -6.67405324	      4.95251211	      7.35334541	    -18.54544024	      0.55889780	     63.14257527	     90.00000001	      0.00000000	      0.00000000	     -1.11094219	    -14.31316203	     -6.52259874	     48.23480011	     90.00000001	      0.00000000	      0.00000000
      1.72000000	     20.67928789	      1.76963915	     -3.59774838	      0.26200413	      0.99173509	      0.17679994	    -19.08281867	     -2.04186284	     -2.39783438	     62.48689532	     -3.42953401	      1.09060206	     -1.57700866	    -12.79702200	     -7.50868209	     -0.21418332	      3.64732636	    -20.56419089	     29.77170453	     -7.90355310	      0.51961427	      9.82880588	     14.08089493	     -7.50868209	    -43.73433957	     -6.58357002	      4.78542997	      7.09243543	    -18.45010204	      0.30574864	     62.66266884	     90.00000001	      0.00000000	      0.00000000	     -0.59948881	    -14.58792933	     -6.16333899	     49.29007224	     90.00000001	      0.00000000	      0.00000000
      1.73000000	     20.63400107	      1.81397796	     -3.53928816	      0.27512443	      0.99434364	      0.17549032	    -17.22730229	     -2.06798407	     -2.74011534	     64.15240470	     -3.62705555	      1.11967069	     -0.40275266	    -13.13402483	     -7.50850082	     -1.54138953	      3.79186668	    -20.63925674	     28.82902409	     -7.63080694	      0.50316139	     10.20766325	     14.51086433	     -7.50850082	    -43.71691930	     -6.48129920	      4.61027639	      6.70687238	    -18.52338693	      0.26883301	     62.37853477	     90.00000001	      0.00000000	      0.00000000	      0.13695189	    -14.71589486	     -6.11730448	     49.95481024	     90.00000001	      0.00000000	      0.00000000
      1.74000000	     20.57141033	      1.82154493	     -3.43349775	      0.28812161	      0.99685139	      0.17411670	    -15.36681525	     -2.05228869	     -3.13812203	     65.38998127	     -3.79186771	      1.14127047	      0.82654229	    -13.31670549	     -7.50831739	     -2.84404401	      3.89276691	    -20.73398536	     27.85547550	     -7.38940435	      0.48616976	     10.57442236	     15.13072697	     -7.50831739	    -43.69314478	     -6.30546918	      4.42572006	      6.36032499	    -18.57501940	      0.19214666	     62.04748110	     90.00000001	      0.00000000	      0.00000000	      0.79526440	    -14.88048950	     -6.02111527	     50.77795353	     90.00000001	      0.00000000	      0.00000000
      1.75000000	     20.56610338	      1.75854468	     -3.29539862	      0.30119330	      0.99923258	      0.17272924	    -13.61631986	     -1.95508157	     -3.69134744	     66.16295354	     -4.05527030	      1.15476138	      2.12648880	    -12.96983149	     -7.50785085	     -4.16970010	      3.85921341	    -21.34605136	     26.90708941	     -7.33608826	      0.46961730	     11.09616034	     16.84861576	     -7.50785085	    -43.70252979	     -6.04691495	      4.21833827	      6.08903077	    -18.55520823	     -0.02786291	     61.60731154	     90.00000001	      0.00000000	      0.00000000	      1.17972073	    -15.18446459	     -5.62718475	     52.18438036	     90.00000001	      0.00000000	      0.00000000
      1.76000000	     20.46994576	      1.70653054	     -3.13290944	      0.31413711	      1.00140683	      0.17122089	    -11.78761508	     -1.86269840	     -4.13327889	     66.55638650	     -4.17296491	      1.16162808	      3.06475870	    -13.00893558	     -7.50771752	     -5.44377605	      3.91459157	    -21.43902370	     25.87245901	     -7.13314543	      0.45155960	     11.33161008	     17.30727532	     -7.50771752	    -43.61668512	     -5.75253506	      4.08822495	      5.67160497	    -18.71638120	     -0.07616061	     61.36117422	     90.00000001	      0.00000000	      0.00000000	      1.95455618	    -15.26812309	     -5.58531353	     52.81155791	     90.00000001	      0.00000000	      0.00000000
      1.77000000	     20.35382942	      1.60656178	     -2.91730075	      0.32696567	      1.00336818	      0.16972445	     -9.98357166	     -1.67580303	     -4.50405400	     66.54071050	     -4.20883875	      1.16135448	      3.81534684	    -12.88684263	     -7.50761473	     -6.66028741	      3.90792425	    -21.61980254	     24.85010260	     -7.00718728	      0.43371611	     11.55648699	     17.78085416	     -7.50761473	    -43.51833952	     -5.38622390	      3.93569256	      5.31378506	    -18.81780780	     -0.13795422	     61.14206958	     90.00000001	      0.00000000	      0.00000000	      2.67204453	    -15.38871611	     -5.53400011	     53.50564257	     90.00000001	      0.00000000	      0.00000000
      1.78000000	     20.49163418	      1.53471052	     -2.62599975	      0.34000942	      1.00516470	      0.16817797	     -8.56501521	     -1.59152514	     -5.36475858	     66.10719219	     -4.47862148	      1.15378816	      4.98108840	    -11.89159330	     -7.50696445	     -8.02836123	      3.76246456	    -23.08220566	     23.97417387	     -7.24301389	      0.41842827	     12.25286732	     21.49894586	     -7.50696445	    -43.67527930	     -5.03516318	      3.70583363	      4.90285027	    -18.84571796	     -0.52036610	     60.95319852	     90.00000001	      0.00000000	      0.00000000	      3.01084427	    -15.82358555	     -4.93099200	     55.11603392	     90.00000001	      0.00000000	      0.00000000
      1.79000000	     20.45281404	      1.49795117	     -2.34989791	      0.35282610	      1.00667679	      0.16662797	     -6.99029017	     -1.49963496	     -5.64992424	     65.39173337	     -4.28991923	      1.14130105	      5.54371683	    -11.78612946	     -7.50682151	     -9.31932037	      3.82372902	    -23.21516011	     22.94269478	     -7.11157449	      0.40042556	     12.49011387	     22.17332651	     -7.50682151	    -43.65921195	     -4.70295463	      3.55563904	      4.48577231	    -18.99228314	     -0.64778412	     60.71667868	     90.00000001	      0.00000000	      0.00000000	      3.79938968	    -15.93206637	     -4.86980712	     55.94572497	     90.00000001	      0.00000000	      0.00000000
      1.80000000	     20.50718038	      1.38940686	     -2.05801494	      0.36576934	      1.00786572	      0.16514861	     -5.60978488	     -1.31775889	     -6.02293252	     64.32745601	     -4.19022496	      1.12272591	      6.09505701	    -11.24880227	     -7.50631301	    -10.57737062	      3.65952918	    -24.41824690	     22.11495503	     -7.25975044	      0.38597878	     12.98743364	     24.84004400	     -7.50631301	    -43.71702849	     -4.30816484	      3.37058837	      4.04876274	    -18.99689611	     -1.07279109	     60.65609843	     90.00000001	      0.00000000	      0.00000000	      4.25486388	    -16.29379776	     -4.39474841	     57.34140606	     90.00000001	      0.00000000	      0.00000000
      1.81000000	     20.45489812	      1.36668575	     -1.77213100	      0.37857333	      1.00872216	      0.16366369	     -4.15412596	     -1.22403512	     -6.11661886	     63.05002905	     -3.85735417	      1.10043060	      6.48082166	    -11.09214234	     -7.50619726	    -11.81906540	      3.71651884	    -24.47311141	     21.16173115	     -7.09067496	      0.36934188	     13.26136608	     25.32765671	     -7.50619726	    -43.66990437	     -3.98948959	      3.23200878	      3.62401142	    -19.17030621	     -1.21172816	     60.42684622	     90.00000001	      0.00000000	      0.00000000	      5.06843585	    -16.37848882	     -4.32284236	     58.08443127	     90.00000001	      0.00000000	      0.00000000
      1.82000000	     20.50258244	      1.35269984	     -1.47980419	      0.39142399	      1.00932546	      0.16225200	     -2.91197376	     -1.14051726	     -6.14183298	     61.48018517	     -3.45962044	      1.07303166	      6.82498874	    -10.90140296	     -7.50607700	    -13.14959033	      3.74701892	    -24.61984840	     20.26270563	     -6.93595684	      0.35365093	     13.59665758	     26.13193053	     -7.50607700	    -43.72434864	     -3.69143728	      3.03201507	      3.20386152	    -19.25282116	     -1.45097939	     60.27414465	     90.00000001	      0.00000000	      0.00000000	      5.80704976	    -16.58362791	     -4.13813663	     59.03459499	     90.00000001	      0.00000000	      0.00000000
      1.83000000	     20.22883036	      1.52754843	     -1.14820407	      0.40400349	      1.00910548	      0.16089415	     -1.25805555	     -1.29287456	     -6.25384012	     59.92237538	     -3.10411589	      1.04584275	      6.97803511	    -10.63072550	     -7.50602280	    -13.86958803	      3.82364812	    -24.91488659	     19.91622289	     -6.71856052	      0.34760366	     13.72055711	     26.01175859	     -7.50602280	    -43.48848674	     -3.55668040	      2.56173972	      2.96802644	    -19.31250231	     -1.50581748	     60.23503608	     90.00000001	      0.00000000	      0.00000000	      6.65686572	    -16.82759067	     -4.15530356	     59.52869219	     90.00000001	      0.00000000	      0.00000000
      1.84000000	     20.70734627	      1.38503837	     -0.88530214	      0.41723189	      1.00940101	      0.15975628	     -0.77331414	     -0.99873389	     -6.07889259	     57.68910085	     -2.69154885	      1.00686475	      7.36210813	    -10.61877742	     -7.50566294	    -15.67399091	      3.65151181	    -25.91902304	     18.94658685	     -6.83692223	      0.33068032	     14.48662862	     29.55398677	     -7.50566294	    -43.94005609	     -3.20434335	      2.69156562	      2.18653793	    -19.12386934	     -2.65713324	     60.37938696	     90.00000001	      0.00000000	      0.00000000	      7.04894708	    -17.49121604	     -2.78558627	     61.72599469	     90.00000001	      0.00000000	      0.00000000
